PathFileType	4	(X/Y/Z)	57_1_25_p0_0-179_filt_butterworth.trc
DataRate	CameraRate	NumFrames	NumMarkers	Units	OrigDataRate	OrigDataStartFrame	OrigNumFrames
60.0	60.0	6	27	m	60.0	0	179
Frame#	Time	RHip			RKnee			RAnkle			RBigToe			RSmallToe			RHeel			LHip			LKnee			LAnkle			LBigToe			LSmallToe			LHeel			Neck			Head			Nose			RShoulder			RElbow			RWrist			RThumb			RIndex			RPinky			LShoulder			LElbow			LWrist			LThumb			LIndex			LPinky			
		X1	Y1	Z1	X2	Y2	Z2	X3	Y3	Z3	X4	Y4	Z4	X5	Y5	Z5	X6	Y6	Z6	X7	Y7	Z7	X8	Y8	Z8	X9	Y9	Z9	X10	Y10	Z10	X11	Y11	Z11	X12	Y12	Z12	X13	Y13	Z13	X14	Y14	Z14	X15	Y15	Z15	X16	Y16	Z16	X17	Y17	Z17	X18	Y18	Z18	X19	Y19	Z19	X20	Y20	Z20	X21	Y21	Z21	X22	Y22	Z22	X23	Y23	Z23	X24	Y24	Z24	X25	Y25	Z25	X26	Y26	Z26	X27	Y27	Z27	
0	0.0	0.24622986602680136	0.6027984219274523	0.9470125742800705	0.27547686794871007	0.7332438123624941	1.3634078146651172	0.283913326167471	0.882903352919325	1.7626685852345851	0.23664200497109242	0.6969297716716609	1.813561728926324	0.3071902658272103	0.724811505765635	1.8080003744053017	0.25491569275730824	0.9971252962178438	1.8077736487528588	0.03159431368770335	0.596500947571145	0.9736791468828072	0.03968394335645823	0.7152667861308092	1.3819983815304608	0.06733123905589647	0.88000608120078	1.759829907831277	0.08307700763352174	0.7063220702473696	1.8142697903878306	0.03296352778848885	0.7491950439978294	1.8209338795623098	0.0878024122781261	0.9561286740592305	1.799175384305316	0.10971375603290595	0.4066448666045356	0.41847225033952484	0.11886033799010658	0.2858411167768022	0.18997763679079147	0.11192842405465292	0.22739787593691838	0.33367758371078865	0.24956851913400857	0.39346239217285006	0.49847603416210656	0.32641163240086213	0.4297385927608016	0.7594474502064045	0.1840328774702816	0.38231665811237797	0.9306266826527921	0.09396213455754887	0.4631029408734116	1.0061693190361822	0.09074380374770351	0.4798345460889582	1.015337915703792	0.11582400191644962	0.4155690756432907	1.0228094602948525	-0.033548189489170877	0.40659061396740753	0.5167936826410282	-0.08990357705440985	0.47757593582914054	0.7666214741112987	0.05982003318988745	0.3851713154401264	0.9337716428612945	0.14801486664278585	0.3977442642782841	0.9927790293552092	0.15015890121565903	0.3976188231575051	1.0047287176204676	0.12433788293909999	0.4026098834440444	1.0209464330041669
1	0.0166666666666666	0.24556167340986093	0.6026906336872774	0.9480776184856805	0.27549692619759397	0.7343895969862709	1.3699001292240927	0.2839131936718697	0.8827313069259766	1.762674897579066	0.23577526805781568	0.6921297027105314	1.8122238253387755	0.30828506986943455	0.7084389361564635	1.8009059971160706	0.25733113117624823	0.9976444177015068	1.8077183672594623	0.03114339304026143	0.5961770391443854	0.9731858314614771	0.04000078589954115	0.7150770424847696	1.3844788038641678	0.0669044407868428	0.880870379186172	1.7628038085041382	0.08380496821464746	0.6959338852717829	1.812323128737977	0.03275505730706239	0.749203287651693	1.8233794174105336	0.09047805351066635	0.9453887790549826	1.7994542189392064	0.10948745788476112	0.4056730698032018	0.4165884171403219	0.11897227947787413	0.2862249270259169	0.19183271991128542	0.1115676607083241	0.22625288737362684	0.33100769228100735	0.24951287865995353	0.3934903210295514	0.4983509125926745	0.32647381147244303	0.42978997494486404	0.7593881547283269	0.183300060682891	0.3966652327085459	0.9304290284191087	0.09721119606430545	0.4527080879881317	1.0037266984372262	0.09368830663998601	0.4701454655231634	1.0149709968238325	0.1174894246009685	0.4232886733996541	1.0230414837522595	-0.03350923503715825	0.4067236062038376	0.5167342661528079	-0.09258918737138734	0.48484609544985646	0.7646071092484538	0.05997878146818078	0.3846992432972892	0.9321971965358777	0.14783332544570194	0.39792098475245935	0.9927409774858487	0.1500589280090542	0.3976044757823493	1.0045655673009626	0.1246520842496005	0.40252974881595166	1.0208825695424737
2	0.0333333333333333	0.24518686414751314	0.603192492285384	0.9491725560256477	0.27590035745175456	0.7350428695200345	1.3735653285569593	0.2838533852364049	0.8826326423018915	1.7627029350802905	0.2353580217725761	0.6866499753199241	1.8107251944186156	0.30848340785236306	0.6965371385702648	1.796278025490397	0.25878384346079175	0.9979718631091073	1.8077158748397317	0.03133204097556057	0.5960383661715142	0.973005738194896	0.04019308167462638	0.7149322612676331	1.3859762489881644	0.0666444088751986	0.8813772500835276	1.7645555531828077	0.0838355785394308	0.6870104855589116	1.809874041190271	0.032566424312388105	0.7491851963412133	1.8248156231568848	0.09205615123283162	0.9389234332691411	1.799637694319559	0.10938589558597239	0.40530279392209423	0.4157840669108115	0.1190519975359544	0.28641743540282777	0.19292565152199828	0.11128399838600553	0.22546926413390223	0.3291092828013859	0.2494898985132704	0.3935286723192411	0.4982747546766715	0.3265550080008322	0.4296890448418435	0.7593550722368695	0.18225208451485236	0.4028349014275143	0.9300776350993991	0.10000596776424026	0.4437177698453266	1.0021244284288182	0.09577227366488193	0.4630778192080427	1.0146002669509675	0.11846595902637702	0.4274731552142031	1.023047566489855	-0.03348989329516497	0.4068622199769768	0.5166920599396025	-0.09424850392993822	0.48932871709950027	0.763409957331901	0.060021124860257645	0.38460543529775926	0.9314926685039786	0.14774587346033397	0.39801324291024626	0.9927116083697588	0.15002493837257785	0.3975999907430243	1.0044268026080867	0.12479557747097983	0.4023135354221494	1.020870253250644
3	0.05	0.24513710926578333	0.6041352181423885	0.9499946550957694	0.27694828174291686	0.7351411570389472	1.3739823067715116	0.2837398579869411	0.882616912207401	1.762747843746433	0.2355592325516286	0.681447973562615	1.809299570182261	0.3082019663884354	0.6913759846969105	1.794924149018151	0.2591923306697973	0.9980791483562438	1.8077583835986375	0.03245513829896644	0.596141828871516	0.9732159823879193	0.04023412625691943	0.7148237501766157	1.386407548412265	0.0665586595126184	0.8814967191019669	1.7649884694001938	0.08334189732279805	0.6807954620030339	1.8075822046861874	0.03241375505705732	0.7491109224025929	1.825163166114581	0.09241083924468708	0.9370305622144914	1.7997209793754632	0.10940646932889982	0.4055430001475295	0.4160245839963873	0.11910234899407864	0.28643130452082416	0.19320063312943464	0.11123965509346635	0.22559798280019397	0.32878424926305105	0.24950096642389422	0.39358260406054196	0.4982588748017597	0.3265589689477071	0.4298448359425298	0.7593439096990913	0.18105868425165864	0.4008745146637675	0.9298945599501965	0.10184026736905423	0.43785021162607135	1.001514464419104	0.09647379967772368	0.4601636736788685	1.0141990024527416	0.1185037978492895	0.4271657205998344	1.022768540896703	-0.033492066348086075	0.4069887806527922	0.5166674747937772	-0.09480225182405838	0.49081275218198056	0.7631216078154208	0.059971188059311245	0.38483071547803044	0.9314042942445173	0.14772324004260784	0.3980724187661394	0.9926586378468765	0.15004184247028676	0.39765896070046397	1.0044215524220925	0.1243514399681315	0.40231375273859316	1.0209593993548023
4	0.0666666666666666	0.24523407150734722	0.604898073454449	0.9503543056960135	0.2784701045637431	0.7350424315352981	1.3728682013594422	0.2837401083150601	0.8826705105986226	1.7627733945412567	0.23603632827164606	0.6787091272802265	1.8084984971032507	0.3083129546234835	0.6927338035506396	1.795934078507864	0.25909078576564826	0.9980706141306669	1.8077945138211362	0.03405480427018907	0.5963482240388654	0.9736369183989533	0.04017230176643977	0.7147019178272243	1.386314967066693	0.0665618571164154	0.8813968254717681	1.7648772695686545	0.08240281716888967	0.6772834274275539	1.8063137989323694	0.03228903586537921	0.748969948014533	1.8249724685833126	0.09215595372732749	0.93736954365039	1.7997653907550768	0.10948067363508587	0.40606686507583767	0.41672321869791107	0.11914800132144396	0.28646607512141503	0.19315407362368497	0.11169203835976539	0.2274046713851342	0.33032657568612306	0.24952270770465113	0.3936382889655507	0.49828538713307624	0.32625455273119036	0.43138213119818997	0.7593157546214551	0.18019976996154485	0.3966630282459449	0.930218186229273	0.10199680055016581	0.4379100565549243	1.0016129476809683	0.09593686352788432	0.4610246513848919	1.0137542021917065	0.11777908820591614	0.42363427691289124	1.0225347400400695	-0.033513455950560135	0.4070374737872167	0.5166560993579176	-0.09478321630731658	0.49074634372499204	0.7633402706849582	0.05993019881723101	0.38495540983904786	0.9312266042137552	0.14768568247934083	0.39827120734204585	0.9925786864361648	0.15005776466226964	0.3978588531804097	1.0047965219023989	0.12281803475713199	0.4035202909577196	1.0211741943919836
5	0.0833333333333333	0.24531807513008946	0.6051818701400734	0.9504270802268682	0.2798544344116705	0.7349545227080174	1.371899830043858	0.28422510995934597	0.8828093937214636	1.7627401758817802	0.2364535312040921	0.6810470691013121	1.8090530725851321	0.3088879765722886	0.6989704907485071	1.7976545194017677	0.2589344309063961	0.9980531396974875	1.8077941443506993	0.035272331161216766	0.5965680315213034	0.9741282253026742	0.040083319792926175	0.714506764137067	1.3861463740873112	0.06660876668738316	0.8812077903630094	1.765099122109268	0.08092545952911678	0.6749193545690676	1.8060520605917212	0.03218653364874357	0.7487698928631414	1.8247034096458876	0.09199628806564891	0.9381291797163608	1.7998381142330153	0.10956363391358745	0.4066250228084678	0.4175183540197386	0.1191944868947517	0.2867488792687114	0.1933409876203549	0.11272240864148167	0.2310316024612779	0.3325173118960226	0.2495356734110541	0.3936710518777934	0.49833219920622346	0.3254722002326583	0.4351203242844994	0.7592392571266978	0.17978534047006278	0.39471501679247756	0.9308291257425942	0.10022501957786192	0.4455593387676287	1.0021314847856555	0.09498277381102967	0.46351294240108715	1.0133945116966114	0.1167707864013567	0.41926728062587626	1.022991322256625	-0.03356200083428739	0.40691691195698354	0.5166648404363929	-0.09460614924314246	0.4902845351087702	0.7637604246849795	0.05995136559817184	0.3846945890377402	0.9308619940480818	0.14761311072308508	0.39871229661098584	0.992604442892197	0.15004689210514524	0.3982139484200648	1.0057209028890206	0.12029880592171499	0.4067146896070653	1.0214565665078774
